<svg id="visual" viewBox="0 0 960 540" width="960" height="540" xmlns="http://www.w3.org/2000/svg" xmlns:xlink="http://www.w3.org/1999/xlink" version="1.1"><rect x="0" y="0" width="960" height="540" fill="#0f0f0f"></rect><defs><linearGradient id="grad1_0" x1="43.8%" y1="0%" x2="100%" y2="100%"><stop offset="14.444444444444446%" stop-color="#a169f5" stop-opacity="1"></stop><stop offset="85.55555555555554%" stop-color="#a169f5" stop-opacity="1"></stop></linearGradient></defs><defs><linearGradient id="grad1_1" x1="43.8%" y1="0%" x2="100%" y2="100%"><stop offset="14.444444444444446%" stop-color="#a169f5" stop-opacity="1"></stop><stop offset="85.55555555555554%" stop-color="#8a5bd0" stop-opacity="1"></stop></linearGradient></defs><defs><linearGradient id="grad1_2" x1="43.8%" y1="0%" x2="100%" y2="100%"><stop offset="14.444444444444446%" stop-color="#744eac" stop-opacity="1"></stop><stop offset="85.55555555555554%" stop-color="#8a5bd0" stop-opacity="1"></stop></linearGradient></defs><defs><linearGradient id="grad1_3" x1="43.8%" y1="0%" x2="100%" y2="100%"><stop offset="14.444444444444446%" stop-color="#744eac" stop-opacity="1"></stop><stop offset="85.55555555555554%" stop-color="#5f4189" stop-opacity="1"></stop></linearGradient></defs><defs><linearGradient id="grad1_4" x1="43.8%" y1="0%" x2="100%" y2="100%"><stop offset="14.444444444444446%" stop-color="#4a3468" stop-opacity="1"></stop><stop offset="85.55555555555554%" stop-color="#5f4189" stop-opacity="1"></stop></linearGradient></defs><defs><linearGradient id="grad1_5" x1="43.8%" y1="0%" x2="100%" y2="100%"><stop offset="14.444444444444446%" stop-color="#4a3468" stop-opacity="1"></stop><stop offset="85.55555555555554%" stop-color="#362849" stop-opacity="1"></stop></linearGradient></defs><defs><linearGradient id="grad1_6" x1="43.8%" y1="0%" x2="100%" y2="100%"><stop offset="14.444444444444446%" stop-color="#231c2b" stop-opacity="1"></stop><stop offset="85.55555555555554%" stop-color="#362849" stop-opacity="1"></stop></linearGradient></defs><defs><linearGradient id="grad1_7" x1="43.8%" y1="0%" x2="100%" y2="100%"><stop offset="14.444444444444446%" stop-color="#231c2b" stop-opacity="1"></stop><stop offset="85.55555555555554%" stop-color="#0f0f0f" stop-opacity="1"></stop></linearGradient></defs><defs><linearGradient id="grad2_0" x1="0%" y1="0%" x2="56.3%" y2="100%"><stop offset="14.444444444444446%" stop-color="#a169f5" stop-opacity="1"></stop><stop offset="85.55555555555554%" stop-color="#a169f5" stop-opacity="1"></stop></linearGradient></defs><defs><linearGradient id="grad2_1" x1="0%" y1="0%" x2="56.3%" y2="100%"><stop offset="14.444444444444446%" stop-color="#8a5bd0" stop-opacity="1"></stop><stop offset="85.55555555555554%" stop-color="#a169f5" stop-opacity="1"></stop></linearGradient></defs><defs><linearGradient id="grad2_2" x1="0%" y1="0%" x2="56.3%" y2="100%"><stop offset="14.444444444444446%" stop-color="#8a5bd0" stop-opacity="1"></stop><stop offset="85.55555555555554%" stop-color="#744eac" stop-opacity="1"></stop></linearGradient></defs><defs><linearGradient id="grad2_3" x1="0%" y1="0%" x2="56.3%" y2="100%"><stop offset="14.444444444444446%" stop-color="#5f4189" stop-opacity="1"></stop><stop offset="85.55555555555554%" stop-color="#744eac" stop-opacity="1"></stop></linearGradient></defs><defs><linearGradient id="grad2_4" x1="0%" y1="0%" x2="56.3%" y2="100%"><stop offset="14.444444444444446%" stop-color="#5f4189" stop-opacity="1"></stop><stop offset="85.55555555555554%" stop-color="#4a3468" stop-opacity="1"></stop></linearGradient></defs><defs><linearGradient id="grad2_5" x1="0%" y1="0%" x2="56.3%" y2="100%"><stop offset="14.444444444444446%" stop-color="#362849" stop-opacity="1"></stop><stop offset="85.55555555555554%" stop-color="#4a3468" stop-opacity="1"></stop></linearGradient></defs><defs><linearGradient id="grad2_6" x1="0%" y1="0%" x2="56.3%" y2="100%"><stop offset="14.444444444444446%" stop-color="#362849" stop-opacity="1"></stop><stop offset="85.55555555555554%" stop-color="#231c2b" stop-opacity="1"></stop></linearGradient></defs><defs><linearGradient id="grad2_7" x1="0%" y1="0%" x2="56.3%" y2="100%"><stop offset="14.444444444444446%" stop-color="#0f0f0f" stop-opacity="1"></stop><stop offset="85.55555555555554%" stop-color="#231c2b" stop-opacity="1"></stop></linearGradient></defs><g transform="translate(960, 0)"><path d="M0 486C-65 481.1 -130 476.1 -186 449C-242 421.9 -288.9 372.5 -321.7 321.7C-354.5 271 -373.2 218.8 -398.2 164.9C-423.2 111.1 -454.6 55.5 -486 0L0 0Z" fill="#1a161d"></path><path d="M0 425.3C-56.9 420.9 -113.8 416.6 -162.7 392.9C-211.7 369.1 -252.8 325.9 -281.5 281.5C-310.2 237.1 -326.5 191.4 -348.4 144.3C-370.3 97.2 -397.8 48.6 -425.2 0L0 0Z" fill="#2d223a"></path><path d="M0 364.5C-48.8 360.8 -97.5 357.1 -139.5 336.8C-181.5 316.4 -216.7 279.4 -241.3 241.3C-265.9 203.2 -279.9 164.1 -298.6 123.7C-317.4 83.3 -341 41.7 -364.5 0L0 0Z" fill="#402e58"></path><path d="M0 303.8C-40.6 300.7 -81.3 297.6 -116.2 280.6C-151.2 263.7 -180.6 232.8 -201.1 201.1C-221.6 169.4 -233.2 136.7 -248.9 103.1C-264.5 69.4 -284.1 34.7 -303.7 0L0 0Z" fill="#553b78"></path><path d="M0 243C-32.5 240.5 -65 238.1 -93 224.5C-121 210.9 -144.5 186.3 -160.9 160.9C-177.3 135.5 -186.6 109.4 -199.1 82.5C-211.6 55.5 -227.3 27.8 -243 0L0 0Z" fill="#6a489a"></path><path d="M0 182.3C-24.4 180.4 -48.8 178.6 -69.7 168.4C-90.7 158.2 -108.3 139.7 -120.7 120.7C-133 101.6 -139.9 82 -149.3 61.9C-158.7 41.7 -170.5 20.8 -182.2 0L0 0Z" fill="#7f55be"></path><path d="M0 121.5C-16.3 120.3 -32.5 119 -46.5 112.3C-60.5 105.5 -72.2 93.1 -80.4 80.4C-88.6 67.7 -93.3 54.7 -99.5 41.2C-105.8 27.8 -113.7 13.9 -121.5 0L0 0Z" fill="#9662e2"></path><path d="M0 60.8C-8.1 60.1 -16.3 59.5 -23.2 56.1C-30.2 52.7 -36.1 46.6 -40.2 40.2C-44.3 33.9 -46.6 27.3 -49.8 20.6C-52.9 13.9 -56.8 6.9 -60.7 0L0 0Z" fill="#a169f5"></path></g><g transform="translate(0, 540)"><path d="M0 -486C53.5 -441 107 -395.9 149.6 -361.2C192.3 -326.5 224 -302.2 278.6 -278.6C333.2 -255 410.6 -232.3 449 -186C487.4 -139.7 486.7 -69.8 486 0L0 0Z" fill="#1a161d"></path><path d="M0 -425.2C46.8 -385.8 93.6 -346.4 130.9 -316.1C168.2 -285.7 196 -264.4 243.8 -243.8C291.5 -223.2 359.3 -203.2 392.9 -162.7C426.5 -122.2 425.9 -61.1 425.3 0L0 0Z" fill="#2d223a"></path><path d="M0 -364.5C40.1 -330.7 80.3 -297 112.2 -270.9C144.2 -244.9 168 -226.6 209 -209C249.9 -191.3 308 -174.2 336.8 -139.5C365.5 -104.8 365 -52.4 364.5 0L0 0Z" fill="#402e58"></path><path d="M0 -303.7C33.4 -275.6 66.9 -247.5 93.5 -225.8C120.2 -204.1 140 -188.9 174.1 -174.1C208.2 -159.4 256.6 -145.2 280.6 -116.2C304.6 -87.3 304.2 -43.7 303.8 0L0 0Z" fill="#553b78"></path><path d="M0 -243C26.8 -220.5 53.5 -198 74.8 -180.6C96.1 -163.3 112 -151.1 139.3 -139.3C166.6 -127.5 205.3 -116.1 224.5 -93C243.7 -69.8 243.3 -34.9 243 0L0 0Z" fill="#6a489a"></path><path d="M0 -182.2C20.1 -165.4 40.1 -148.5 56.1 -135.5C72.1 -122.5 84 -113.3 104.5 -104.5C124.9 -95.6 154 -87.1 168.4 -69.7C182.8 -52.4 182.5 -26.2 182.3 0L0 0Z" fill="#7f55be"></path><path d="M0 -121.5C13.4 -110.2 26.8 -99 37.4 -90.3C48.1 -81.6 56 -75.5 69.7 -69.7C83.3 -63.8 102.7 -58.1 112.3 -46.5C121.8 -34.9 121.7 -17.5 121.5 0L0 0Z" fill="#9662e2"></path><path d="M0 -60.7C6.7 -55.1 13.4 -49.5 18.7 -45.2C24 -40.8 28 -37.8 34.8 -34.8C41.6 -31.9 51.3 -29 56.1 -23.2C60.9 -17.5 60.8 -8.7 60.8 0L0 0Z" fill="#a169f5"></path></g></svg>