<svg id="visual" viewBox="0 0 960 540" width="960" height="540" xmlns="http://www.w3.org/2000/svg" xmlns:xlink="http://www.w3.org/1999/xlink" version="1.1"><path d="M0 66L107 66L107 185L213 185L213 82L320 82L320 60L427 60L427 249L533 249L533 98L640 98L640 152L747 152L747 163L853 163L853 195L960 195L960 163L960 0L960 0L853 0L853 0L747 0L747 0L640 0L640 0L533 0L533 0L427 0L427 0L320 0L320 0L213 0L213 0L107 0L107 0L0 0Z" fill="#1b1b1b"></path><path d="M0 136L107 136L107 233L213 233L213 141L320 141L320 152L427 152L427 309L533 309L533 179L640 179L640 233L747 233L747 244L853 244L853 244L960 244L960 239L960 161L960 193L853 193L853 161L747 161L747 150L640 150L640 96L533 96L533 247L427 247L427 58L320 58L320 80L213 80L213 183L107 183L107 64L0 64Z" fill="#202023"></path><path d="M0 347L107 347L107 330L213 330L213 336L320 336L320 336L427 336L427 449L533 449L533 384L640 384L640 309L747 309L747 401L853 401L853 363L960 363L960 374L960 237L960 242L853 242L853 242L747 242L747 231L640 231L640 177L533 177L533 307L427 307L427 150L320 150L320 139L213 139L213 231L107 231L107 134L0 134Z" fill="#24252c"></path><path d="M0 465L107 465L107 438L213 438L213 471L320 471L320 471L427 471L427 503L533 503L533 460L640 460L640 433L747 433L747 492L853 492L853 428L960 428L960 438L960 372L960 361L853 361L853 399L747 399L747 307L640 307L640 382L533 382L533 447L427 447L427 334L320 334L320 334L213 334L213 328L107 328L107 345L0 345Z" fill="#282a34"></path><path d="M0 541L107 541L107 541L213 541L213 541L320 541L320 541L427 541L427 541L533 541L533 541L640 541L640 541L747 541L747 541L853 541L853 541L960 541L960 541L960 436L960 426L853 426L853 490L747 490L747 431L640 431L640 458L533 458L533 501L427 501L427 469L320 469L320 469L213 469L213 436L107 436L107 463L0 463Z" fill="#2d2f3d"></path></svg>